<svg data-v-fde0c5aa="" xmlns="http://www.w3.org/2000/svg" viewBox="0 0 300 300" class="iconLeft"><!----><defs data-v-fde0c5aa=""><!----></defs><rect data-v-fde0c5aa="" fill="transparent" x="0" y="0" width="300px" height="300px" class="logo-background-square"></rect><defs data-v-fde0c5aa=""><!----></defs><g data-v-fde0c5aa="" id="2ea3aede-fa85-4781-981b-01f94d1a4b4a" fill="#000000" transform="matrix(2.269902874673303,0,0,2.269902874673303,109.98213490209224,137.45878596124072)"><path d="M7.15 8.57L7.15 8.57L7.80 9.32Q7.24 9.93 6.36 10.39L6.36 10.39Q5.91 10.62 5.43 10.73Q4.94 10.84 4.41 10.84L4.41 10.84Q2.65 10.84 1.56 9.89Q0.48 8.94 0.48 7.34L0.48 7.34Q0.48 5.52 1.82 4.37Q3.16 3.22 5.19 3.22L5.19 3.22Q6.02 3.22 6.65 3.38L6.65 3.38Q6.95 3.46 7.17 3.53Q7.40 3.60 7.52 3.66L7.52 3.66L7.20 4.60Q7.13 4.81 7.08 4.98Q7.04 5.15 6.96 5.52L6.96 5.52L6.33 5.42L6.27 4.80Q6.09 4.65 5.71 4.51Q5.33 4.37 4.84 4.37L4.84 4.37Q3.87 4.37 3.37 5.02Q2.87 5.66 2.87 6.86L2.87 6.86Q2.87 7.95 3.53 8.64Q4.18 9.34 5.22 9.34L5.22 9.34Q5.85 9.34 6.40 9.04Q6.95 8.75 7.15 8.57ZM16.35 7.03L16.35 7.03Q16.35 8.70 15.14 9.77Q13.93 10.84 12.07 10.84L12.07 10.84Q10.20 10.84 9.07 9.79Q7.94 8.75 7.94 7.03L7.94 7.03Q7.94 5.35 9.14 4.28Q10.34 3.22 12.22 3.22L12.22 3.22Q14.10 3.22 15.22 4.27Q16.35 5.33 16.35 7.03ZM13.95 7.03L13.95 7.03Q13.95 5.80 13.47 5.05Q12.99 4.30 12.11 4.30L12.11 4.30Q11.27 4.30 10.79 5.04L10.79 5.04Q10.57 5.42 10.45 5.92Q10.33 6.41 10.33 7.03L10.33 7.03Q10.33 8.25 10.82 9.00Q11.32 9.76 12.17 9.76L12.17 9.76Q13.01 9.76 13.48 9.02Q13.95 8.28 13.95 7.03ZM22.45 10.69L22.47 9.60Q22.03 10.25 21.42 10.54Q20.80 10.84 20.20 10.84L20.20 10.84Q18.75 10.84 17.87 9.87Q16.98 8.90 16.98 7.36L16.98 7.36Q16.98 5.55 18.21 4.38Q19.45 3.22 21.16 3.22L21.16 3.22Q21.51 3.22 21.77 3.29L21.77 3.29Q21.95 3.31 22.07 3.34Q22.19 3.37 22.30 3.43L22.30 3.43L22.23 1.36L21.24 1.19L21.24 0.58Q21.58 0.56 21.86 0.53Q22.14 0.50 22.47 0.45Q22.81 0.39 23.59 0.20L23.59 0.20L24.56 0.20L24.46 2.12L24.46 7.98L24.54 9.91Q24.74 9.91 24.94 9.98L24.94 9.98L25.34 10.08L25.34 10.68L24.16 10.64L23.88 10.64Q23.63 10.64 23.15 10.66Q22.67 10.69 22.45 10.69L22.45 10.69ZM22.30 6.83L22.30 6.83L22.30 4.65L21.79 4.41Q21.47 4.30 21.08 4.30L21.08 4.30Q20.26 4.30 19.81 5.05Q19.37 5.79 19.37 7.03L19.37 7.03Q19.37 8.02 19.84 8.68Q20.31 9.34 21.01 9.34L21.01 9.34Q21.69 9.34 21.99 8.68Q22.30 8.02 22.30 6.83ZM32.15 8.30L32.91 9.02Q32.40 9.76 31.35 10.30Q30.31 10.84 29.10 10.84L29.10 10.84Q27.30 10.84 26.19 9.88Q25.08 8.91 25.08 7.27L25.08 7.27Q25.08 5.58 26.26 4.40Q27.44 3.22 29.31 3.22L29.31 3.22Q30.81 3.22 31.76 3.92Q32.71 4.62 32.71 6.08L32.71 6.08L32.67 6.74L27.58 6.72Q27.58 7.36 27.71 7.84Q27.85 8.32 28.10 8.65L28.10 8.65Q28.62 9.34 29.89 9.34L29.89 9.34Q30.66 9.34 31.24 9.00Q31.82 8.66 32.15 8.30L32.15 8.30ZM27.63 5.77L27.63 5.77Q27.81 5.77 27.97 5.77Q28.13 5.77 28.37 5.79L28.37 5.79L28.83 5.78Q29.29 5.78 29.63 5.75Q29.98 5.72 30.49 5.64L30.49 5.64L30.49 5.33Q30.49 4.83 30.16 4.52Q29.82 4.22 29.30 4.22L29.30 4.22Q28.50 4.22 28.02 4.84L28.02 4.84Q27.77 5.17 27.63 5.77ZM40.99 5.62L40.99 7.94L41.07 9.91L41.87 10.08L41.87 10.68L39.91 10.64L38.82 10.68L38.82 10.08L38.84 9.91L38.84 6.61Q38.84 5.67 38.62 5.19Q38.39 4.72 37.73 4.72L37.73 4.72Q37.06 4.72 36.72 5.31Q36.38 5.90 36.38 6.76L36.38 6.76L36.38 7.94L36.46 9.91L37.25 10.08L37.25 10.68L35.29 10.64L33.31 10.68L33.31 10.08L34.14 9.91L34.20 7.94L34.20 3.42L34.14 1.36L33.15 1.19L33.15 0.58Q33.48 0.56 33.75 0.53Q34.03 0.50 34.38 0.45Q34.73 0.39 35.49 0.20L35.49 0.20L36.47 0.20L36.38 2.12L36.38 4.35Q36.64 4.07 36.91 3.87Q37.19 3.66 37.51 3.51L37.51 3.51Q38.13 3.22 38.82 3.22L38.82 3.22Q39.86 3.22 40.42 3.85Q40.99 4.48 40.99 5.62L40.99 5.62ZM47.08 7.05L47.08 7.05L46.86 7.05Q45.80 7.05 45.18 7.48Q44.56 7.90 44.56 8.50L44.56 8.50Q44.56 8.85 44.80 9.10L44.80 9.10Q45.06 9.34 45.53 9.34L45.53 9.34Q46.22 9.34 46.62 8.78L46.62 8.78Q46.85 8.47 46.96 8.05Q47.08 7.64 47.08 7.05ZM47.42 10.26L47.39 9.21Q46.99 10.16 46.18 10.52L46.18 10.52Q45.77 10.69 45.40 10.77Q45.03 10.85 44.65 10.85L44.65 10.85Q43.51 10.85 42.83 10.28Q42.15 9.70 42.15 8.82L42.15 8.82Q42.15 7.58 43.47 6.82Q44.78 6.05 47.08 6.05L47.08 6.05Q47.08 5.04 46.84 4.71Q46.60 4.37 45.81 4.37L45.81 4.37Q45.17 4.37 44.76 4.49Q44.35 4.60 44.28 4.62Q44.22 4.65 43.97 4.77L43.97 4.77L43.92 5.48L43.32 5.64L42.55 3.85Q42.69 3.80 43.14 3.68Q43.60 3.55 44.00 3.43L44.00 3.43Q44.47 3.34 45.00 3.28Q45.54 3.22 46.13 3.22L46.13 3.22Q47.61 3.22 48.43 3.79Q49.24 4.36 49.24 5.50L49.24 5.50L49.24 7.89Q49.24 8.27 49.27 8.60Q49.29 8.94 49.33 9.16Q49.36 9.38 49.40 9.52Q49.43 9.66 49.52 9.91L49.52 9.91L50.15 10.08L50.15 10.68L49.16 10.65L48.54 10.64Q47.91 10.64 47.49 10.69L47.49 10.69L47.42 10.26ZM56.55 8.57L56.55 8.57L57.20 9.32Q56.64 9.93 55.76 10.39L55.76 10.39Q55.31 10.62 54.83 10.73Q54.34 10.84 53.81 10.84L53.81 10.84Q52.04 10.84 50.96 9.89Q49.88 8.94 49.88 7.34L49.88 7.34Q49.88 5.52 51.22 4.37Q52.56 3.22 54.59 3.22L54.59 3.22Q55.42 3.22 56.05 3.38L56.05 3.38Q56.35 3.46 56.57 3.53Q56.80 3.60 56.92 3.66L56.92 3.66L56.60 4.60Q56.52 4.81 56.48 4.98Q56.44 5.15 56.36 5.52L56.36 5.52L55.73 5.42L55.67 4.80Q55.49 4.65 55.11 4.51Q54.73 4.37 54.24 4.37L54.24 4.37Q53.27 4.37 52.77 5.02Q52.27 5.66 52.27 6.86L52.27 6.86Q52.27 7.95 52.93 8.64Q53.58 9.34 54.62 9.34L54.62 9.34Q55.25 9.34 55.80 9.04Q56.35 8.75 56.55 8.57ZM58.14 1.36L57.19 1.19L57.19 0.58Q57.51 0.56 57.79 0.53Q58.07 0.50 58.34 0.45L58.34 0.45Q58.72 0.41 59.49 0.20L59.49 0.20L60.46 0.20L60.36 2.12L60.36 6.08L61.68 5.05Q61.90 4.89 62.11 4.72L62.11 4.72Q62.37 4.50 62.76 4.13L62.76 4.13L62.27 3.98L62.27 3.38L63.79 3.42L65.32 3.38L65.32 3.98L64.63 4.15L62.09 6.18Q62.85 7.01 63.30 7.48L63.30 7.48Q63.54 7.73 64.03 8.23L64.03 8.23Q65.01 9.19 66.09 10.10L66.09 10.10L66.09 10.66L63.61 10.84Q63.22 10.37 62.83 9.91L62.83 9.91Q62.48 9.51 62.03 9.02L62.03 9.02L60.36 7.18L60.36 7.94L60.43 9.91L61.25 10.08L61.25 10.68L59.29 10.64L57.33 10.68L57.33 10.08L58.16 9.91L58.20 7.94L58.20 3.42L58.14 1.36Z"></path></g><defs data-v-fde0c5aa=""><!----></defs><g data-v-fde0c5aa="" id="d116dc26-35e5-4311-96e5-76a36af653bb" stroke="none" fill="#87544E" transform="matrix(0.5807168832523038,0,0,0.5807168832523038,40,120.95806055195287)"><path d="M97.938 68.771h-6.316V20.81a2.022 2.022 0 00-2.021-2.021H10.399a2.022 2.022 0 00-2.021 2.021v47.961H2.062A2.062 2.062 0 000 70.832v2.084c0 .103.008.204.022.306.527 3.521 3.348 7.447 7.159 7.922.083.01.169.017.252.017l84.51.071h.003c4.404 0 7.604-4.197 8.041-8.085.009-.075.013-.152.013-.23v-2.084a2.062 2.062 0 00-2.062-2.062zM12.42 22.831h75.16V68.77H59.985c-.133 0-.262.016-.386.04H41.16a2.07 2.07 0 00-.396-.04H12.42V22.831zm79.528 54.276l-84.362-.071c-1.461-.261-3.024-2.16-3.434-4.143h35.086c.702 1.246 2.017 2.085 3.519 2.085H57.99c1.502 0 2.816-.839 3.52-2.085h34.35c-.322 2.033-2.006 4.214-3.912 4.214zM38.84 37.498a2.083 2.083 0 00-2.947 0l-8.689 8.689a2.085 2.085 0 000 2.948l8.689 8.688a2.08 2.08 0 002.948 0 2.083 2.083 0 000-2.947l-7.216-7.215 7.216-7.216a2.084 2.084 0 00-.001-2.947zm20.521 20.325a2.081 2.081 0 002.948 0l8.688-8.688a2.085 2.085 0 000-2.948l-8.688-8.689a2.083 2.083 0 10-2.947 2.947l7.215 7.216-7.215 7.215a2.083 2.083 0 00-.001 2.947zm-17.568 4.452a2.085 2.085 0 002.797-.932l12.506-25.011a2.083 2.083 0 00-.933-2.796 2.087 2.087 0 00-2.797.932L40.861 59.479a2.083 2.083 0 00.932 2.796z"></path></g><!----></svg>